<?xml version="1.0" encoding="UTF-8"?>
<svg version="1.1" xmlns="http://www.w3.org/2000/svg" width="512" height="512">
<path d="M0 0 C1.12650677 -0.00573832 1.12650677 -0.00573832 2.27577126 -0.01159257 C4.77588987 -0.02185759 7.27577602 -0.01794287 9.77590942 -0.01396179 C11.57512625 -0.01831188 13.37434123 -0.02349602 15.17355347 -0.02944946 C20.04964174 -0.04281909 24.9256524 -0.04342037 29.80175543 -0.04088616 C33.87720299 -0.03981502 37.95263494 -0.04470351 42.02807915 -0.04949158 C51.64553189 -0.06057983 61.26294557 -0.06102808 70.88040161 -0.05497742 C80.79096958 -0.04893807 90.70139556 -0.06124925 100.61193931 -0.08254749 C109.13105576 -0.10018004 117.65012708 -0.10616221 126.1692611 -0.10290974 C131.25280184 -0.10109931 136.3362413 -0.1037091 141.41976547 -0.11762428 C146.20180099 -0.13022483 150.98361565 -0.12823744 155.76564789 -0.11521339 C157.51633657 -0.11285288 159.26704091 -0.11556342 161.01771164 -0.12383652 C181.09116534 -0.21182512 181.09116534 -0.21182512 186.79646111 4.57100964 C191.44152068 9.64769954 192.33473496 14.6297578 192.23342896 21.26069641 C193.57527504 21.24737274 193.57527504 21.24737274 194.94422913 21.23377991 C203.40315545 21.15340177 211.86195222 21.09261439 220.32117367 21.05344772 C224.66945213 21.03263426 229.01741319 21.00443192 233.36550903 20.9589386 C237.56711987 20.91525649 241.76842675 20.89151244 245.97024727 20.88118744 C247.56773216 20.87383596 249.16520172 20.8594807 250.76255608 20.83777618 C262.72326051 20.68182216 271.44466501 21.9328324 280.50686646 30.32710266 C286.23097488 36.73758608 287.38668619 43.69851751 287.35368347 52.03077698 C287.35496511 53.21196661 287.35496511 53.21196661 287.35627264 54.41701865 C287.35792091 57.05796817 287.35241672 59.6988543 287.34695435 62.33979797 C287.34667231 64.23198953 287.34683053 66.12418119 287.34739685 68.01637268 C287.34768417 73.15647731 287.34179789 78.29655869 287.33482289 83.43665791 C287.32857859 88.80718175 287.3279847 94.17770611 287.32679749 99.54823303 C287.32368736 109.71957078 287.31547824 119.8908978 287.305448 130.06223083 C287.294277 141.64130377 287.28877392 153.22037722 287.28375256 164.79945421 C287.27329538 188.61987423 287.25570207 212.44028472 287.23342896 236.26069641 C288.17444458 236.39346985 289.11546021 236.52624329 290.08499146 236.66304016 C293.33293389 237.27958506 294.79555297 238.10411381 297.23342896 240.26069641 C300.33120196 238.89157815 302.34560897 237.35088762 304.65921021 234.88960266 C305.29149536 234.23282532 305.92378052 233.57604797 306.57522583 232.89936829 C307.88152939 231.52315353 309.18367384 230.14297811 310.48147583 228.75874329 C315.03457751 224.04879718 318.82033017 221.06451083 325.42092896 219.86225891 C339.09509341 220.03908 347.5114583 231.37765813 356.53421021 240.35835266 C357.24573777 241.06563916 357.24573777 241.06563916 357.97163963 241.78721428 C360.47409234 244.2748092 362.97376123 246.76515993 365.47097778 249.25801086 C368.03742803 251.8189456 370.61305523 254.370442 373.19086933 256.91993046 C375.18711998 258.89751803 377.17659276 260.88182031 379.1642971 262.86799431 C380.56819875 264.26743187 381.97915445 265.65978146 383.39024353 267.05197144 C384.24510849 267.90983749 385.09997345 268.76770355 385.98074341 269.65156555 C386.73160721 270.39878372 387.48247101 271.14600189 388.25608826 271.91586304 C393.07266154 277.62760598 393.9166393 282.75788728 393.68655396 290.03022766 C392.2115832 300.5457519 381.52727013 308.25904175 374.23342896 315.26069641 C375.27471986 317.87490776 376.32633059 320.48072661 377.42092896 323.07319641 C378.81640733 328.54776544 378.11189138 332.59789253 375.48342896 337.57319641 C372.29066798 341.38677202 369.76684102 342.8478547 364.98342896 344.13569641 C360.84874346 344.27351926 358.14310116 343.45582412 354.34671021 341.95210266 C351.97039712 341.05339474 351.97039712 341.05339474 348.23342896 341.26069641 C346.11215344 342.62221368 344.23544829 343.98342221 342.28738403 345.56245422 C341.70332794 346.02716786 341.11927185 346.4918815 340.51751709 346.97067738 C332.78005732 353.20224036 325.35072016 359.78030275 318.04592896 366.51069641 C317.33911987 367.15959965 316.63231079 367.80850288 315.90408325 368.47706985 C297.26545757 385.75677361 284.98684769 400.98742277 283.92405701 427.04960632 C283.64564134 440.06019006 284.53905719 453.29487265 286.30744934 466.1864624 C287.33058254 473.9133232 287.59244423 479.5388303 283.23342896 486.26069641 C282.45612427 487.47499329 282.45612427 487.47499329 281.66311646 488.71382141 C275.57248313 495.75324686 268.52041307 499.46547211 259.23342896 500.26069641 C254.53160069 500.40838848 249.83054187 500.40016093 245.12689209 500.39440918 C243.67945941 500.39627864 242.23202723 500.39857988 240.78459585 500.4012745 C236.81582862 500.40738212 232.84708249 500.40726013 228.87831163 500.40608013 C224.59464729 500.40587586 220.31098969 500.41139732 216.02732849 500.4161377 C207.63847974 500.42443885 199.24963801 500.42719228 190.8607855 500.42775007 C184.04180617 500.42822544 177.22282915 500.4302812 170.40385056 500.4334507 C151.06732492 500.44225541 131.73080483 500.4468703 112.39427717 500.44612022 C111.35216406 500.44608027 110.31005094 500.44604031 109.23635864 500.44599915 C107.67127892 500.44593782 107.67127892 500.44593782 106.07458143 500.44587526 C89.16143051 500.44546873 72.24830184 500.45504063 55.33515735 500.46913751 C37.96547009 500.48350062 20.59579368 500.49040775 3.22610033 500.48954374 C-6.52433883 500.48921177 -16.27475464 500.49195881 -26.02518845 500.50272179 C-34.32588524 500.51182586 -42.62654812 500.51400275 -50.92724775 500.50721236 C-55.16124223 500.50394685 -59.39517163 500.50389167 -63.62915993 500.51256561 C-67.50787785 500.52042996 -71.38647906 500.51899986 -75.26519413 500.51028148 C-76.66554005 500.50874637 -78.06589467 500.5105631 -79.46623032 500.51614156 C-91.42272756 500.56060347 -101.70944926 499.99254003 -110.71578979 491.40132141 C-116.63531648 484.99780827 -119.1392289 479.37517949 -119.14968109 470.61812115 C-119.15464061 469.87690928 -119.15960012 469.1356974 -119.16470993 468.37202457 C-119.177646 465.89249395 -119.16928784 463.41350361 -119.16098022 460.93395996 C-119.16587008 459.13662866 -119.17206032 457.33930051 -119.17943811 455.5419777 C-119.19584886 450.60596586 -119.19351737 445.67011361 -119.18806314 440.73408401 C-119.18539435 435.40947435 -119.19992195 430.08490737 -119.2121582 424.76031494 C-119.23322092 414.32973523 -119.23775256 403.8992111 -119.23597032 393.46861263 C-119.23466308 384.99059687 -119.23846487 376.51259845 -119.24589539 368.03458595 C-119.24799457 365.59319459 -119.25009217 363.15180322 -119.25218821 360.71041185 C-119.25323173 359.49528735 -119.25427526 358.28016285 -119.25535041 357.0282164 C-119.27425627 334.04258434 -119.27320156 311.05698419 -119.26638108 288.07134757 C-119.26080571 267.04288759 -119.28163026 246.01454943 -119.31474155 224.98611792 C-119.34847377 203.3958206 -119.36364744 181.80558164 -119.35902452 160.21525747 C-119.35677932 148.09328078 -119.36203048 135.97141669 -119.38691711 123.84946251 C-119.40792415 113.52928222 -119.41152808 103.20927627 -119.39261752 92.88908883 C-119.38345601 87.62401677 -119.38232965 82.35926981 -119.40297318 77.09422302 C-119.42167053 72.27218899 -119.41719336 67.45074664 -119.39442736 62.62873522 C-119.3902385 60.8865161 -119.39445125 59.14425173 -119.4080233 57.40208044 C-119.49154901 45.89449342 -118.39491481 37.31166843 -110.51657104 28.38569641 C-101.66424546 20.39464778 -91.98442096 20.7188778 -80.70016479 20.87007141 C-79.05393668 20.87754378 -77.40769959 20.883232 -75.76145935 20.88722229 C-71.45571779 20.90240042 -67.15052708 20.94161318 -62.84500122 20.98603821 C-58.44067839 21.0271611 -54.03626543 21.04526943 -49.63180542 21.06538391 C-41.00980954 21.10811639 -32.38825906 21.17627094 -23.76657104 21.26069641 C-23.78977417 20.0064386 -23.81297729 18.75218079 -23.83688354 17.45991516 C-23.91364515 13.310524 -23.11196551 10.77878811 -20.76657104 7.26069641 C-14.65702336 1.15114873 -8.40313683 -0.04606603 0 0 Z " fill="#F4F7F8" transform="translate(118.76657104492188,5.7393035888671875)"/>
<path d="M0 0 C1.12650677 -0.00573832 1.12650677 -0.00573832 2.27577126 -0.01159257 C4.77588987 -0.02185759 7.27577602 -0.01794287 9.77590942 -0.01396179 C11.57512625 -0.01831188 13.37434123 -0.02349602 15.17355347 -0.02944946 C20.04964174 -0.04281909 24.9256524 -0.04342037 29.80175543 -0.04088616 C33.87720299 -0.03981502 37.95263494 -0.04470351 42.02807915 -0.04949158 C51.64553189 -0.06057983 61.26294557 -0.06102808 70.88040161 -0.05497742 C80.79096958 -0.04893807 90.70139556 -0.06124925 100.61193931 -0.08254749 C109.13105576 -0.10018004 117.65012708 -0.10616221 126.1692611 -0.10290974 C131.25280184 -0.10109931 136.3362413 -0.1037091 141.41976547 -0.11762428 C146.20180099 -0.13022483 150.98361565 -0.12823744 155.76564789 -0.11521339 C157.51633657 -0.11285288 159.26704091 -0.11556342 161.01771164 -0.12383652 C181.09116534 -0.21182512 181.09116534 -0.21182512 186.79646111 4.57100964 C191.44152068 9.64769954 192.33473496 14.6297578 192.23342896 21.26069641 C193.57527504 21.24737274 193.57527504 21.24737274 194.94422913 21.23377991 C203.40315545 21.15340177 211.86195222 21.09261439 220.32117367 21.05344772 C224.66945213 21.03263426 229.01741319 21.00443192 233.36550903 20.9589386 C237.56711987 20.91525649 241.76842675 20.89151244 245.97024727 20.88118744 C247.56773216 20.87383596 249.16520172 20.8594807 250.76255608 20.83777618 C262.72326051 20.68182216 271.44466501 21.9328324 280.50686646 30.32710266 C286.23097488 36.73758608 287.38668619 43.69851751 287.35368347 52.03077698 C287.35496511 53.21196661 287.35496511 53.21196661 287.35627264 54.41701865 C287.35792091 57.05796817 287.35241672 59.6988543 287.34695435 62.33979797 C287.34667231 64.23198953 287.34683053 66.12418119 287.34739685 68.01637268 C287.34768417 73.15647731 287.34179789 78.29655869 287.33482289 83.43665791 C287.32857859 88.80718175 287.3279847 94.17770611 287.32679749 99.54823303 C287.32368736 109.71957078 287.31547824 119.8908978 287.305448 130.06223083 C287.294277 141.64130377 287.28877392 153.22037722 287.28375256 164.79945421 C287.27329538 188.61987423 287.25570207 212.44028472 287.23342896 236.26069641 C288.17444458 236.39346985 289.11546021 236.52624329 290.08499146 236.66304016 C293.33293389 237.27958506 294.79555297 238.10411381 297.23342896 240.26069641 C300.33120196 238.89157815 302.34560897 237.35088762 304.65921021 234.88960266 C305.29149536 234.23282532 305.92378052 233.57604797 306.57522583 232.89936829 C307.88152939 231.52315353 309.18367384 230.14297811 310.48147583 228.75874329 C315.03457751 224.04879718 318.82033017 221.06451083 325.42092896 219.86225891 C339.09509341 220.03908 347.5114583 231.37765813 356.53421021 240.35835266 C357.24573777 241.06563916 357.24573777 241.06563916 357.97163963 241.78721428 C360.47409234 244.2748092 362.97376123 246.76515993 365.47097778 249.25801086 C368.03742803 251.8189456 370.61305523 254.370442 373.19086933 256.91993046 C375.18711998 258.89751803 377.17659276 260.88182031 379.1642971 262.86799431 C380.56819875 264.26743187 381.97915445 265.65978146 383.39024353 267.05197144 C384.24510849 267.90983749 385.09997345 268.76770355 385.98074341 269.65156555 C386.73160721 270.39878372 387.48247101 271.14600189 388.25608826 271.91586304 C393.07266154 277.62760598 393.9166393 282.75788728 393.68655396 290.03022766 C392.2115832 300.5457519 381.52727013 308.25904175 374.23342896 315.26069641 C375.27471986 317.87490776 376.32633059 320.48072661 377.42092896 323.07319641 C378.81640733 328.54776544 378.11189138 332.59789253 375.48342896 337.57319641 C372.29066798 341.38677202 369.76684102 342.8478547 364.98342896 344.13569641 C359.94838134 344.30353133 356.6308884 343.76939696 352.23342896 341.26069641 C350.54913477 339.59275481 348.93807094 337.84968474 347.37869263 336.06440735 C343.08700047 331.24497575 338.67152938 326.58799475 334.10964966 322.02339172 C333.47755679 321.39071255 332.84546392 320.75803337 332.19421673 320.1061821 C330.18445625 318.09847302 328.17188793 316.09360563 326.15921021 314.08882141 C324.73981563 312.67129709 323.32064551 311.25354799 321.90168762 309.83558655 C318.20673236 306.14440872 314.5087819 302.45624646 310.81015015 298.76875305 C307.02035506 294.98927603 303.23346852 291.20688711 299.44631958 287.42475891 C292.04482987 280.03392208 284.64016538 272.64627498 277.23342896 265.26069641 C274.37617989 266.55693786 272.33191039 267.91845215 270.13308716 270.14985657 C269.55601517 270.73030731 268.97894318 271.31075806 268.38438416 271.90879822 C267.46854805 272.84482376 267.46854805 272.84482376 266.53421021 273.79975891 C265.89855637 274.44061432 265.26290253 275.08146973 264.60798645 275.741745 C262.58248764 277.78503249 260.56381653 279.83489413 258.54592896 281.88569641 C256.51645586 283.94274061 254.48555882 285.99832683 252.45173645 288.05107117 C251.18695496 289.3281616 249.92485527 290.60791433 248.66563416 291.89048767 C247.20694453 293.3659608 245.72281928 294.81621974 244.23342896 296.26069641 C243.90342896 296.26069641 243.57342896 296.26069641 243.23342896 296.26069641 C243.23196239 295.15817472 243.23049583 294.05565304 243.22898483 292.9197216 C243.19240491 266.10440892 243.13297509 239.28922128 243.04952621 212.47401237 C243.0097012 199.50642054 242.97732627 186.5388897 242.96243286 173.57124329 C242.94943433 162.26986328 242.92251561 150.96861728 242.87881589 139.66731274 C242.85616074 133.6822356 242.84052071 127.69732399 242.8415451 121.71220016 C242.84228931 116.07986397 242.82443457 110.44789425 242.79226112 104.81565285 C242.78373619 102.7476665 242.78202971 100.67963918 242.78762627 98.61164284 C242.79424854 95.78881684 242.77638787 92.96716292 242.75241089 90.14445496 C242.76017131 89.32537812 242.76793172 88.50630129 242.77592731 87.66240394 C242.69680189 82.40324793 241.67849034 79.45311145 238.23342896 75.26069641 C232.8197259 70.37515951 228.47385696 70.08525097 221.40921021 69.94429016 C220.5478093 69.92350906 219.68640839 69.90272797 218.79890442 69.88131714 C216.04799352 69.81594732 213.2969874 69.7569951 210.54592896 69.69819641 C208.68068474 69.65499924 206.81545015 69.61138456 204.95022583 69.56733704 C200.37805772 69.46027879 195.80579385 69.35897587 191.23342896 69.26069641 C191.02073364 71.15561829 191.02073364 71.15561829 190.80374146 73.08882141 C190.38082876 76.85658909 189.72116877 79.27540863 187.23342896 82.26069641 C181.12777597 86.54333452 175.92150723 87.40450096 168.62796021 87.35835266 C167.78875534 87.35693771 166.94955048 87.35552277 166.08491516 87.35406494 C163.4052168 87.34846856 160.72560206 87.33591676 158.04592896 87.32319641 C156.22887287 87.31818094 154.41181548 87.31361812 152.59475708 87.30952454 C148.14094883 87.29850032 143.68720307 87.28123819 139.23342896 87.26069641 C139.09026245 88.03397278 138.94709595 88.80724915 138.79959106 89.60395813 C136.48202314 100.47923804 127.77222079 110.16501411 119.08499146 116.58882141 C104.09110903 126.20485052 88.08396435 129.78553359 70.48342896 126.57710266 C53.10774234 121.54400113 40.12243685 111.01139461 31.23342896 95.26069641 C29.86771855 92.26140314 29.23342896 90.57482252 29.23342896 87.26069641 C27.4708374 87.29211731 27.4708374 87.29211731 25.67263794 87.32417297 C21.29125267 87.39685918 16.90992015 87.44259981 12.52810669 87.48042297 C10.63576275 87.50047344 8.74348027 87.52772119 6.85134888 87.56245422 C4.12308544 87.61126294 1.39564481 87.63373083 -1.33297729 87.65132141 C-2.59121056 87.68228912 -2.59121056 87.68228912 -3.87486267 87.71388245 C-9.68246113 87.71607489 -12.98456629 86.59162852 -17.76657104 83.26069641 C-21.88466573 78.92000201 -23.76657104 75.26162878 -23.76657104 69.26069641 C-29.21149657 69.30494549 -34.6552731 69.37487949 -40.09957886 69.46821594 C-41.95007157 69.49637139 -43.80068333 69.51761287 -45.65133667 69.5316925 C-48.31796984 69.55319761 -50.98317989 69.59988501 -53.64938354 69.65132141 C-54.88254807 69.65316437 -54.88254807 69.65316437 -56.140625 69.65504456 C-61.65167361 69.79430189 -64.40269833 70.91002938 -68.76657104 74.26069641 C-69.42657104 74.26069641 -70.08657104 74.26069641 -70.76657104 74.26069641 C-71.05532104 75.00319641 -71.34407104 75.74569641 -71.64157104 76.51069641 C-72.76657104 79.26069641 -72.76657104 79.26069641 -73.82080424 81.05181527 C-75.05210023 83.92756274 -75.01978909 86.22522287 -75.02383995 89.35279465 C-75.03028884 90.60984766 -75.03673774 91.86690067 -75.04338205 93.16204619 C-75.04043967 94.55965575 -75.03730422 95.95726492 -75.03399658 97.35487366 C-75.03773207 98.83755483 -75.04233319 100.32023403 -75.04772723 101.80291009 C-75.0599854 105.88301687 -75.05969345 109.96304182 -75.05733848 114.04316282 C-75.05693101 118.44139088 -75.06796276 122.83959245 -75.07745361 127.23780823 C-75.09408048 135.85734399 -75.09956394 144.4768524 -75.10067837 153.09640285 C-75.10162813 160.10234576 -75.10573484 167.10827962 -75.11207962 174.11421967 C-75.12969734 193.97157658 -75.13891777 213.82891186 -75.13741867 233.68627664 C-75.1372988 235.29270916 -75.1372988 235.29270916 -75.13717651 236.93159485 C-75.13709475 238.00385568 -75.13701299 239.07611651 -75.13692875 240.18087009 C-75.1361159 257.55727163 -75.15525186 274.93358649 -75.18345325 292.30996296 C-75.21217289 310.14625014 -75.22599402 327.98249504 -75.22426569 345.81880593 C-75.22360143 355.83476944 -75.22910954 365.85064208 -75.2506218 375.86658478 C-75.26882158 384.3950512 -75.2731909 392.9233856 -75.25960295 401.45186302 C-75.25306695 405.80324691 -75.25297874 410.15437742 -75.27030945 414.5057373 C-75.28601768 418.49072899 -75.28319979 422.47526591 -75.26574118 426.46024635 C-75.26266628 427.90036929 -75.26632222 429.34052597 -75.27746134 430.7806091 C-75.33463544 438.69776318 -75.14255202 444.53193429 -70.76657104 451.26069641 C-69.07347291 453.11582455 -69.07347291 453.11582455 -67.20407104 454.19819641 C-66.62528198 454.57846985 -66.04649292 454.95874329 -65.45016479 455.35054016 C-62.19974178 457.1077294 -59.52472646 457.38749952 -55.90635395 457.39491749 C-54.89861307 457.39937533 -53.8908722 457.40383318 -52.85259372 457.40842611 C-51.18716086 457.40814956 -51.18716086 457.40814956 -49.48808289 457.40786743 C-48.31101751 457.41154412 -47.13395213 457.41522081 -45.9212181 457.41900891 C-42.64837993 457.4281374 -39.37557124 457.43274581 -36.10272253 457.43539822 C-32.574974 457.43930108 -29.04723999 457.44887945 -25.51950073 457.45761108 C-16.99709799 457.47737619 -8.47469405 457.48744184 0.04772589 457.49633887 C4.06086887 457.50072177 8.07401054 457.50608858 12.08715248 457.51132774 C25.4274617 457.52834021 38.76777009 457.54283439 52.10808849 457.55007648 C55.57019743 457.55198639 59.03230637 457.55390672 62.49441528 457.55586243 C63.35490796 457.55634617 64.21540065 457.55682991 65.10196886 457.55732831 C79.04147901 457.56562866 92.98090335 457.59096557 106.92037603 457.6234431 C121.2309884 457.65651358 135.54155717 457.67452524 149.85220796 457.67772073 C157.88741362 457.67988586 165.92249415 457.68863486 173.95766258 457.7141819 C180.80082579 457.73588877 187.64383346 457.74393943 194.48702719 457.73421512 C197.97769504 457.72967029 201.46804201 457.73156672 204.95866585 457.75097656 C208.74605643 457.7686234 212.53263193 457.76162351 216.32002258 457.7484436 C217.41915755 457.75941285 218.51829252 457.7703821 219.6507346 457.78168374 C226.70699413 457.72236731 232.38902745 456.74360605 237.75281018 451.8841837 C242.96848915 446.11882489 243.60779009 439.66957776 244.23342896 432.26069641 C244.92307739 432.11374329 245.61272583 431.96679016 246.32327271 431.81538391 C247.26299927 431.59108704 248.20272583 431.36679016 249.17092896 431.13569641 C250.08745239 430.92686829 251.00397583 430.71804016 251.94827271 430.50288391 C261.73892627 426.80082941 268.60488078 419.23819038 275.73342896 411.88569641 C277.22958887 410.3544402 278.72793584 408.82540893 280.22891235 407.2988739 C281.57135051 405.93183928 282.90744829 404.55858688 284.24319458 403.18501282 C286.23342896 401.26069641 286.23342896 401.26069641 287.23342896 401.26069641 C287.32637155 411.01434699 287.39731658 420.7678911 287.44067764 430.52189541 C287.46149559 435.05176953 287.48970642 439.58133924 287.53518677 444.11103821 C287.57885246 448.48771187 287.60260957 452.86409391 287.61293793 457.2409687 C287.6202923 458.90543771 287.6346533 460.56989191 287.65634918 462.23423576 C287.80691624 474.27027285 286.78569937 483.33191427 278.28811646 492.46772766 C268.54535499 500.96949099 257.32332649 500.40932331 245.12689209 500.39440918 C243.67945941 500.39627864 242.23202723 500.39857988 240.78459585 500.4012745 C236.81582862 500.40738212 232.84708249 500.40726013 228.87831163 500.40608013 C224.59464729 500.40587586 220.31098969 500.41139732 216.02732849 500.4161377 C207.63847974 500.42443885 199.24963801 500.42719228 190.8607855 500.42775007 C184.04180617 500.42822544 177.22282915 500.4302812 170.40385056 500.4334507 C151.06732492 500.44225541 131.73080483 500.4468703 112.39427717 500.44612022 C111.35216406 500.44608027 110.31005094 500.44604031 109.23635864 500.44599915 C107.67127892 500.44593782 107.67127892 500.44593782 106.07458143 500.44587526 C89.16143051 500.44546873 72.24830184 500.45504063 55.33515735 500.46913751 C37.96547009 500.48350062 20.59579368 500.49040775 3.22610033 500.48954374 C-6.52433883 500.48921177 -16.27475464 500.49195881 -26.02518845 500.50272179 C-34.32588524 500.51182586 -42.62654812 500.51400275 -50.92724775 500.50721236 C-55.16124223 500.50394685 -59.39517163 500.50389167 -63.62915993 500.51256561 C-67.50787785 500.52042996 -71.38647906 500.51899986 -75.26519413 500.51028148 C-76.66554005 500.50874637 -78.06589467 500.5105631 -79.46623032 500.51614156 C-91.42272756 500.56060347 -101.70944926 499.99254003 -110.71578979 491.40132141 C-116.63531648 484.99780827 -119.1392289 479.37517949 -119.14968109 470.61812115 C-119.15464061 469.87690928 -119.15960012 469.1356974 -119.16470993 468.37202457 C-119.177646 465.89249395 -119.16928784 463.41350361 -119.16098022 460.93395996 C-119.16587008 459.13662866 -119.17206032 457.33930051 -119.17943811 455.5419777 C-119.19584886 450.60596586 -119.19351737 445.67011361 -119.18806314 440.73408401 C-119.18539435 435.40947435 -119.19992195 430.08490737 -119.2121582 424.76031494 C-119.23322092 414.32973523 -119.23775256 403.8992111 -119.23597032 393.46861263 C-119.23466308 384.99059687 -119.23846487 376.51259845 -119.24589539 368.03458595 C-119.24799457 365.59319459 -119.25009217 363.15180322 -119.25218821 360.71041185 C-119.25323173 359.49528735 -119.25427526 358.28016285 -119.25535041 357.0282164 C-119.27425627 334.04258434 -119.27320156 311.05698419 -119.26638108 288.07134757 C-119.26080571 267.04288759 -119.28163026 246.01454943 -119.31474155 224.98611792 C-119.34847377 203.3958206 -119.36364744 181.80558164 -119.35902452 160.21525747 C-119.35677932 148.09328078 -119.36203048 135.97141669 -119.38691711 123.84946251 C-119.40792415 113.52928222 -119.41152808 103.20927627 -119.39261752 92.88908883 C-119.38345601 87.62401677 -119.38232965 82.35926981 -119.40297318 77.09422302 C-119.42167053 72.27218899 -119.41719336 67.45074664 -119.39442736 62.62873522 C-119.3902385 60.8865161 -119.39445125 59.14425173 -119.4080233 57.40208044 C-119.49154901 45.89449342 -118.39491481 37.31166843 -110.51657104 28.38569641 C-101.66424546 20.39464778 -91.98442096 20.7188778 -80.70016479 20.87007141 C-79.05393668 20.87754378 -77.40769959 20.883232 -75.76145935 20.88722229 C-71.45571779 20.90240042 -67.15052708 20.94161318 -62.84500122 20.98603821 C-58.44067839 21.0271611 -54.03626543 21.04526943 -49.63180542 21.06538391 C-41.00980954 21.10811639 -32.38825906 21.17627094 -23.76657104 21.26069641 C-23.78977417 20.0064386 -23.81297729 18.75218079 -23.83688354 17.45991516 C-23.91364515 13.310524 -23.11196551 10.77878811 -20.76657104 7.26069641 C-14.65702336 1.15114873 -8.40313683 -0.04606603 0 0 Z " fill="#FDEF56" transform="translate(118.76657104492188,5.7393035888671875)"/>
<path d="M0 0 C1.64622812 0.00747237 3.29246521 0.01316059 4.93870544 0.01715088 C9.244447 0.03232901 13.54963772 0.07154177 17.85516357 0.1159668 C23.03560251 0.16433624 28.21622696 0.18249086 33.3968277 0.20578003 C41.24279797 0.24439897 49.08756269 0.32110565 56.93359375 0.390625 C56.93359375 15.900625 56.93359375 31.410625 56.93359375 47.390625 C39.43359375 47.640625 39.43359375 47.640625 33.95898438 47.68847656 C32.50257273 47.71788305 31.04618888 47.74871534 29.58984375 47.78125 C28.48527832 47.78294189 28.48527832 47.78294189 27.35839844 47.78466797 C22.42823411 47.91853336 18.97380704 49.01970971 14.67224121 51.43939209 C12.93359375 52.390625 12.93359375 52.390625 9.93359375 53.390625 C8.81274063 55.7337059 8.81274063 55.7337059 7.93359375 58.390625 C7.58956398 58.98040516 7.24553422 59.57018532 6.89107931 60.17783761 C5.64537345 63.05671364 5.6803866 65.34673758 5.67632484 68.48272324 C5.66987595 69.73977625 5.66342706 70.99682926 5.65678275 72.29197478 C5.65972513 73.68958434 5.66286057 75.0871935 5.66616821 76.48480225 C5.66243272 77.96748342 5.65783161 79.45016262 5.65243757 80.93283868 C5.6401794 85.01294545 5.64047134 89.09297041 5.64282632 93.17309141 C5.64323378 97.57131947 5.63220204 101.96952104 5.62271118 106.36773682 C5.60608431 114.98727258 5.60060086 123.60678099 5.59948643 132.22633144 C5.59853666 139.23227435 5.59442996 146.23820821 5.58808517 153.24414825 C5.57046745 173.10150517 5.56124703 192.95884045 5.56274612 212.81620523 C5.56286599 214.42263774 5.56286599 214.42263774 5.56298828 216.06152344 C5.56307004 217.13378427 5.5631518 218.20604509 5.56323604 219.31079867 C5.56404889 236.68720022 5.54491293 254.06351508 5.51671155 271.43989155 C5.48799191 289.27617873 5.47417078 307.11242362 5.4758991 324.94873452 C5.47656336 334.96469803 5.47105526 344.98057067 5.449543 354.99651337 C5.43134321 363.52497979 5.4269739 372.05331419 5.44056185 380.58179161 C5.44709784 384.9331755 5.44718606 389.28430601 5.42985535 393.63566589 C5.41414711 397.62065758 5.416965 401.6051945 5.43442361 405.59017494 C5.43749851 407.03029788 5.43384258 408.47045456 5.42270346 409.91053769 C5.36552936 417.82769176 5.55761278 423.66186288 9.93359375 430.390625 C11.62669189 432.24575314 11.62669189 432.24575314 13.49609375 433.328125 C14.07488281 433.70839844 14.65367188 434.08867187 15.25 434.48046875 C18.50042302 436.23765799 21.17543834 436.51742811 24.79381084 436.52484608 C25.80155172 436.52930392 26.8092926 436.53376176 27.84757107 436.53835469 C29.51300394 436.53807815 29.51300394 436.53807815 31.21208191 436.53779602 C32.38914729 436.54147271 33.56621267 436.5451494 34.7789467 436.5489375 C38.05178486 436.55806599 41.32459356 436.5626744 44.59744227 436.56532681 C48.1251908 436.56922967 51.6529248 436.57880804 55.18066406 436.58753967 C63.70306681 436.60730478 72.22547074 436.61737043 80.74789068 436.62626746 C84.76103367 436.63065036 88.77417533 436.63601717 92.78731728 436.64125633 C106.12762649 436.65826879 119.46793489 436.67276298 132.80825329 436.68000507 C136.27036223 436.68191498 139.73247116 436.68383531 143.19458008 436.68579102 C144.05507276 436.68627476 144.91556544 436.6867585 145.80213366 436.6872569 C159.74164381 436.69555725 173.68106814 436.72089416 187.62054082 436.75337169 C201.9311532 436.78644217 216.24172196 436.80445383 230.55237275 436.80764931 C238.58757842 436.80981444 246.62265895 436.81856345 254.65782738 436.84411049 C261.50099058 436.86581736 268.34399826 436.87386802 275.18719199 436.86414371 C278.67785984 436.85959888 282.1682068 436.8614953 285.65883064 436.88090515 C289.44622123 436.89855199 293.23279673 436.8915521 297.02018738 436.87837219 C298.11932234 436.88934144 299.21845731 436.90031068 300.3508994 436.91161233 C307.40715892 436.8522959 313.08919225 435.87353464 318.45297498 431.01411229 C323.66865394 425.24875348 324.30795488 418.79950635 324.93359375 411.390625 C325.62324219 411.24367188 326.31289063 411.09671875 327.0234375 410.9453125 C327.96316406 410.72101563 328.90289062 410.49671875 329.87109375 410.265625 C330.78761719 410.05679687 331.70414062 409.84796875 332.6484375 409.6328125 C342.43909107 405.930758 349.30504558 398.36811896 356.43359375 391.015625 C357.92975366 389.48436879 359.42810064 387.95533752 360.92907715 386.42880249 C362.27151531 385.06176787 363.60761308 383.68851547 364.94335938 382.31494141 C366.93359375 380.390625 366.93359375 380.390625 367.93359375 380.390625 C368.02653634 390.14427558 368.09748138 399.89781969 368.14084244 409.651824 C368.16166038 414.18169812 368.18987122 418.71126783 368.23535156 423.2409668 C368.27901726 427.61764046 368.30277437 431.9940225 368.31310272 436.37089729 C368.32045709 438.0353663 368.3348181 439.6998205 368.35651398 441.36416435 C368.50708103 453.40020144 367.48586416 462.46184286 358.98828125 471.59765625 C349.24551978 480.09941958 338.02349128 479.5392519 325.82705688 479.52433777 C324.3796242 479.52620723 322.93219202 479.52850847 321.48476064 479.53120309 C317.51599341 479.53731071 313.54724728 479.53718872 309.57847643 479.53600872 C305.29481209 479.53580445 301.01115448 479.54132591 296.72749329 479.54606628 C288.33864453 479.55436744 279.94980281 479.55712087 271.56095029 479.55767866 C264.74197096 479.55815403 257.92299395 479.56020979 251.10401535 479.56337929 C231.76748971 479.572184 212.43096962 479.57679889 193.09444197 479.57604881 C192.05232885 479.57600886 191.01021574 479.5759689 189.93652344 479.57592773 C188.37144372 479.57586641 188.37144372 479.57586641 186.77474622 479.57580385 C169.8615953 479.57539732 152.94846663 479.58496922 136.03532214 479.5990661 C118.66563488 479.61342921 101.29595847 479.62033634 83.92626512 479.61947232 C74.17582597 479.61914036 64.42541015 479.62188739 54.67497635 479.63265038 C46.37427955 479.64175445 38.07361668 479.64393134 29.77291705 479.63714095 C25.53892256 479.63387544 21.30499317 479.63382026 17.07100487 479.6424942 C13.19228694 479.65035854 9.31368574 479.64892845 5.43497066 479.64021007 C4.03462475 479.63867495 2.63427012 479.64049169 1.23393448 479.64607015 C-10.72256276 479.69053206 -21.00928447 479.12246862 -30.015625 470.53125 C-35.93515168 464.12773686 -38.43906411 458.50510808 -38.4495163 449.74804974 C-38.45447581 449.00683786 -38.45943533 448.26562599 -38.46454513 447.50195315 C-38.47748121 445.02242254 -38.46912305 442.5434322 -38.46081543 440.06388855 C-38.46570528 438.26655725 -38.47189552 436.4692291 -38.47927332 434.67190629 C-38.49568407 429.73589444 -38.49335257 424.8000422 -38.48789835 419.8640126 C-38.48522955 414.53940294 -38.49975716 409.21483596 -38.51199341 403.89024353 C-38.53305612 393.45966382 -38.53758777 383.02913968 -38.53580552 372.59854122 C-38.53449829 364.12052546 -38.53830007 355.64252704 -38.54573059 347.16451454 C-38.54782977 344.72312317 -38.54992737 342.28173181 -38.55202341 339.84034044 C-38.55306694 338.62521594 -38.55411047 337.41009144 -38.55518562 336.15814499 C-38.57409148 313.17251293 -38.57303676 290.18691278 -38.56621629 267.20127616 C-38.56064091 246.17281617 -38.58146547 225.14447802 -38.61457676 204.11604651 C-38.64830897 182.52574918 -38.66348265 160.93551023 -38.65885973 139.34518605 C-38.65661453 127.22320937 -38.66186569 115.10134528 -38.68675232 102.9793911 C-38.70775936 92.65921081 -38.71136329 82.33920486 -38.69245273 72.01901742 C-38.68329121 66.75394535 -38.68216485 61.4891984 -38.70280838 56.22415161 C-38.72150574 51.40211758 -38.71702856 46.58067523 -38.69426256 41.75866381 C-38.6900737 40.01644469 -38.69428645 38.27418032 -38.7078585 36.53200903 C-38.79138421 25.02442201 -37.69475002 16.44159702 -29.81640625 7.515625 C-20.96408067 -0.47542363 -11.28425617 -0.15119361 0 0 Z " fill="#FDB441" transform="translate(38.06640625,26.609375)"/>
<path d="M0 0 C18.10689915 -0.16043524 18.10689915 -0.16043524 25.86523438 -0.1953125 C31.14526586 -0.21916171 36.42501809 -0.24727992 41.70483398 -0.30175781 C45.96479909 -0.3454343 50.22446445 -0.36918283 54.48463631 -0.37950897 C56.10444922 -0.38686144 57.72424698 -0.40121867 59.3439312 -0.42292023 C71.37528029 -0.57761411 80.15400797 0.6191259 89.2734375 9.06640625 C94.99754593 15.47688967 96.15325723 22.4378211 96.12025452 30.77008057 C96.12110894 31.55754032 96.12196337 32.34500007 96.12284368 33.15632224 C96.12449195 35.79727176 96.11898777 38.43815789 96.11352539 41.07910156 C96.11324335 42.97129312 96.11340158 44.86348478 96.1139679 46.75567627 C96.11425522 51.8957809 96.10836894 57.03586228 96.10139394 62.17596149 C96.09514963 67.54648534 96.09455575 72.9170097 96.09336853 78.28753662 C96.0902584 88.45887437 96.08204928 98.63020139 96.07201904 108.80153441 C96.06084805 120.38060736 96.05534496 131.95968081 96.05032361 143.5387578 C96.03986642 167.35917782 96.02227311 191.17958831 96 215 C96.94101562 215.13277344 97.88203125 215.26554688 98.8515625 215.40234375 C102.09950493 216.01888865 103.56212401 216.8434174 106 219 C109.097773 217.63088173 111.11218001 216.09019121 113.42578125 213.62890625 C114.05806641 212.97212891 114.69035156 212.31535156 115.34179688 211.63867188 C116.64810044 210.26245712 117.95024488 208.8822817 119.24804688 207.49804688 C123.80114855 202.78810077 127.58690122 199.80381442 134.1875 198.6015625 C147.86166446 198.77838359 156.27802935 210.11696172 165.30078125 219.09765625 C166.01230882 219.80494275 166.01230882 219.80494275 166.73821068 220.52651787 C169.24066338 223.01411279 171.74033227 225.50446352 174.23754883 227.99731445 C176.80399908 230.55824919 179.37962627 233.10974559 181.95744038 235.65923405 C183.95369103 237.63682162 185.94316381 239.6211239 187.93086815 241.6072979 C189.3347698 243.00673546 190.7457255 244.39908505 192.15681458 245.79127502 C193.01167953 246.64914108 193.86654449 247.50700714 194.74731445 248.39086914 C195.87361015 249.5116964 195.87361015 249.5116964 197.0226593 250.65516663 C201.83923258 256.36690957 202.68321035 261.49719087 202.453125 268.76953125 C200.97815425 279.28505549 190.29384117 286.99834534 183 294 C184.04129091 296.61421135 185.09290164 299.2200302 186.1875 301.8125 C187.58297838 307.28706903 186.87846243 311.33719612 184.25 316.3125 C181.05723902 320.12607561 178.53341206 321.58715829 173.75 322.875 C168.71495238 323.04283492 165.39745945 322.50870055 161 320 C159.31570581 318.3320584 157.70464199 316.58898833 156.14526367 314.80371094 C151.85357151 309.98427934 147.43810042 305.32729834 142.8762207 300.76269531 C142.24412784 300.13001614 141.61203497 299.49733696 140.96078777 298.84548569 C138.95102729 296.83777661 136.93845898 294.83290922 134.92578125 292.828125 C133.50638668 291.41060068 132.08721656 289.99285158 130.66825867 288.57489014 C126.97330341 284.88371231 123.27535294 281.19555005 119.57672119 277.50805664 C115.78692611 273.72857962 112.00003957 269.9461907 108.21289062 266.1640625 C100.81140091 258.77322566 93.40673643 251.38557857 86 244 C83.14275093 245.29624145 81.09848143 246.65775574 78.8996582 248.88916016 C78.03405022 249.75983627 78.03405022 249.75983627 77.1509552 250.64810181 C76.23511909 251.58412735 76.23511909 251.58412735 75.30078125 252.5390625 C74.34730049 253.50034561 74.34730049 253.50034561 73.3745575 254.48104858 C71.34905869 256.52433608 69.33038758 258.57419772 67.3125 260.625 C65.28302691 262.6820442 63.25212986 264.73763042 61.2183075 266.79037476 C59.95352601 268.06746519 58.69142631 269.34721792 57.4322052 270.62979126 C55.97351558 272.10526439 54.48939032 273.55552333 53 275 C52.67 275 52.34 275 52 275 C51.99853344 273.89747831 51.99706688 272.79495663 51.99555588 271.65902519 C51.95897596 244.84371251 51.89954613 218.02852487 51.81609726 191.21331596 C51.77627224 178.24572413 51.74389732 165.27819329 51.72900391 152.31054688 C51.71600537 141.00916687 51.68908665 129.70792087 51.64538693 118.40661633 C51.62273178 112.42153919 51.60709176 106.43662758 51.60811615 100.45150375 C51.60886036 94.81916756 51.59100561 89.18719784 51.55883217 83.55495644 C51.55030723 81.48697009 51.54860075 79.41894277 51.55419731 77.35094643 C51.56081959 74.52812043 51.54295892 71.70646651 51.51898193 68.88375854 C51.52674235 68.06468171 51.53450277 67.24560488 51.54249835 66.40170753 C51.46334369 61.14060799 50.43723616 58.19971246 47 54 C41.21751864 48.52185976 35.27300544 47.70361161 27.5390625 47.5859375 C26.83740967 47.56829346 26.13575684 47.55064941 25.4128418 47.5324707 C22.81711828 47.46988595 20.22102735 47.42336749 17.625 47.375 C11.80875 47.25125 5.9925 47.1275 0 47 C0 31.49 0 15.98 0 0 Z " fill="#FCB442" transform="translate(310,27)"/>
<path d="M0 0 C1.45244923 0.0201031 2.90492544 0.03834712 4.35742188 0.0546875 C7.88468334 0.09836494 11.41091499 0.16717893 14.9375 0.25 C12.62080248 1.79446501 10.68933254 2.83169002 8.1875 3.9375 C1.32421284 7.36914358 -3.16025581 12.23850039 -6.19544971 19.25501931 C-8.10763238 25.86011505 -7.61256799 32.91892251 -7.5771637 39.74131775 C-7.58249231 41.53212749 -7.58955982 43.32293276 -7.59821075 45.11372954 C-7.61682308 50.02246876 -7.61053791 54.93090598 -7.60005772 59.83965766 C-7.59306176 65.13833543 -7.60906666 70.43695141 -7.62205505 75.73561096 C-7.64369352 86.11112453 -7.64356854 96.48652842 -7.63542951 106.86205714 C-7.62912888 115.29521585 -7.63026713 123.72834257 -7.63670158 132.16150093 C-7.63760324 133.36190107 -7.63850489 134.56230121 -7.63943387 135.79907711 C-7.64128508 138.237704 -7.64314764 140.67633088 -7.64502143 143.11495776 C-7.66159935 165.98138809 -7.65288072 188.84775671 -7.63603585 211.71418334 C-7.62133869 232.63258917 -7.63596761 253.55085136 -7.66480602 274.46923869 C-7.69420062 295.95112332 -7.70517211 317.43294166 -7.69562382 338.91484553 C-7.69460127 341.34479144 -7.69360666 343.77473737 -7.6926403 346.2046833 C-7.69192572 347.99802607 -7.69192572 347.99802607 -7.6911967 349.82759799 C-7.68903267 358.24934298 -7.69883607 366.6710252 -7.71341133 375.09275627 C-7.73092936 385.35799909 -7.73082476 395.62305878 -7.70805968 405.88829439 C-7.69691286 411.12502204 -7.69376522 416.36142697 -7.71236038 421.59814072 C-7.7291716 426.39419863 -7.72280518 431.18965252 -7.69814359 435.98567135 C-7.69326206 437.71840598 -7.69677123 439.45118939 -7.70963103 441.18388318 C-7.78468924 452.08579804 -6.91360563 460.35000667 0.25 469.0625 C6.49639863 474.14677796 11.92337288 477.00706825 19.9375 478.25 C19.9375 478.58 19.9375 478.91 19.9375 479.25 C15.82987237 479.29992909 11.72236552 479.33596646 7.61450195 479.35986328 C6.22091591 479.3698393 4.82735034 479.38342501 3.43383789 479.40087891 C-8.91450035 479.55152243 -19.65106974 479.31982125 -29.01171875 470.390625 C-34.93124543 463.98711186 -37.43515786 458.36448308 -37.44561005 449.60742474 C-37.45056956 448.86621286 -37.45552908 448.12500099 -37.46063888 447.36132815 C-37.47357496 444.88179754 -37.4652168 442.4028072 -37.45690918 439.92326355 C-37.46179903 438.12593225 -37.46798927 436.3286041 -37.47536707 434.53128129 C-37.49177782 429.59526944 -37.48944632 424.6594172 -37.4839921 419.7233876 C-37.4813233 414.39877794 -37.49585091 409.07421096 -37.50808716 403.74961853 C-37.52914987 393.31903882 -37.53368152 382.88851468 -37.53189927 372.45791622 C-37.53059204 363.97990046 -37.53439382 355.50190204 -37.54182434 347.02388954 C-37.54392352 344.58249817 -37.54602112 342.14110681 -37.54811716 339.69971544 C-37.54916069 338.48459094 -37.55020422 337.26946644 -37.55127937 336.01751999 C-37.57018523 313.03188793 -37.56913051 290.04628778 -37.56231004 267.06065116 C-37.55673466 246.03219117 -37.57755922 225.00385302 -37.61067051 203.97542151 C-37.64440272 182.38512418 -37.6595764 160.79488523 -37.65495348 139.20456105 C-37.65270828 127.08258437 -37.65795944 114.96072028 -37.68284607 102.8387661 C-37.70385311 92.51858581 -37.70745704 82.19857986 -37.68854648 71.87839242 C-37.67938496 66.61332035 -37.6782586 61.3485734 -37.69890213 56.08352661 C-37.71759949 51.26149258 -37.71312231 46.44005023 -37.69035631 41.61803881 C-37.68616745 39.87581969 -37.6903802 38.13355532 -37.70395225 36.39138403 C-37.78748134 24.88333158 -36.69036939 16.30165271 -28.8125 7.375 C-20.21465356 -0.40026566 -10.97532695 -0.26558262 0 0 Z " fill="#FE9738" transform="translate(37.0625,26.75)"/>
<path d="M0 0 C2.88330643 1.30683699 4.94564108 2.69722137 7.17645264 4.9359436 C7.77935623 5.53609787 8.38225983 6.13625214 9.00343323 6.7545929 C9.65295456 7.41130478 10.30247589 8.06801666 10.97167969 8.74462891 C11.6647673 9.43742447 12.35785492 10.13022003 13.07194519 10.8440094 C15.36002799 13.13348474 17.64094651 15.4299613 19.921875 17.7265625 C21.5075592 19.31597709 23.09368574 20.90495048 24.68023682 22.49349976 C28.85377854 26.67467585 33.02127917 30.86182346 37.18756104 35.05023193 C41.44042719 39.32356063 45.69896419 43.59122973 49.95703125 47.859375 C58.31025559 56.23404581 66.65711048 64.61503443 75 73 C73.14554722 77.01268634 70.50398492 79.77124201 67.39208984 82.85083008 C66.8194339 83.42538437 66.24677795 83.99993866 65.6567688 84.59190369 C63.76300891 86.48936641 61.86214423 88.37953238 59.9609375 90.26953125 C58.63738122 91.59189455 57.31419536 92.91462868 55.99136353 94.23771667 C53.21526115 97.01225463 50.43583225 99.78340153 47.65380859 102.55200195 C44.1049193 106.08397634 40.56257245 109.62242179 37.02251244 113.16324329 C34.28772218 115.89776012 31.55032127 118.62965098 28.81206131 121.36069298 C27.5062644 122.66332766 26.20105471 123.96655128 24.8964653 125.27039528 C12.90658247 137.2459416 12.90658247 137.2459416 6.55374146 142.65849304 C4.5339789 144.40236459 2.6883832 146.27732281 0.859375 148.21875 C0.18132812 148.92257812 -0.49671875 149.62640625 -1.1953125 150.3515625 C-2.588196 151.80799962 -3.97340343 153.27180961 -5.3515625 154.7421875 C-6.02445312 155.43570313 -6.69734375 156.12921875 -7.390625 156.84375 C-7.98907227 157.47474609 -8.58751953 158.10574219 -9.20410156 158.75585938 C-11 160 -11 160 -12.91371536 159.75373936 C-15.27503477 158.90063459 -16.4126887 157.95745657 -18.17645264 156.18431091 C-18.77935623 155.58553131 -19.38225983 154.98675171 -20.00343323 154.36982727 C-20.65295456 153.70952011 -21.30247589 153.04921295 -21.97167969 152.36889648 C-23.01131111 151.32992218 -23.01131111 151.32992218 -24.07194519 150.2699585 C-26.36243696 147.97737572 -28.64211815 145.67434758 -30.921875 143.37109375 C-32.50734104 141.78003289 -34.09347047 140.18963283 -35.68023682 138.59986877 C-39.85600436 134.41264357 -44.02268488 130.21648749 -48.18756104 126.01843262 C-52.4386182 121.7366947 -56.69817414 117.46343035 -60.95703125 113.18945312 C-69.31304565 104.80125827 -77.6594884 96.40360769 -86 88 C-84.60961241 84.86650313 -82.9925774 82.74483836 -80.57052612 80.33001709 C-79.86098785 79.61772949 -79.15144958 78.90544189 -78.42041016 78.17156982 C-77.64213867 77.40048889 -76.86386719 76.62940796 -76.06201172 75.83496094 C-74.83262375 74.60513489 -74.83262375 74.60513489 -73.57839966 73.35046387 C-70.86687568 70.64033376 -68.14833508 67.93735752 -65.4296875 65.234375 C-63.5488083 63.35722571 -61.66832513 61.479688 -59.7883606 59.60162354 C-55.34417974 55.16365594 -50.89492578 50.73081075 -46.44382393 46.29978585 C-41.37584024 41.25416591 -36.31354229 36.20285784 -31.25171256 31.15106535 C-20.84078771 20.76103903 -10.42274494 10.37816928 0 0 Z " fill="#8AC9FD" transform="translate(394,270)"/>
<path d="M0 0 C3.79759002 1.77174015 6.50053779 4.16209469 9.45703125 7.0859375 C9.96425217 7.58412994 10.47147308 8.08232239 10.99406433 8.59561157 C12.0598617 9.64694612 13.12290806 10.70107597 14.18334961 11.7578125 C15.81246938 13.37496961 17.45931719 14.97253725 19.10742188 16.5703125 C20.14176828 17.59520162 21.17501104 18.62120603 22.20703125 19.6484375 C22.70274124 20.12461517 23.19845123 20.60079285 23.70918274 21.09140015 C25.06567383 22.46630859 25.06567383 22.46630859 27 25 C26.68353319 28.50841114 25.14528347 30.23436725 22.71769714 32.67671204 C21.6641227 33.74731117 21.6641227 33.74731117 20.58926392 34.83953857 C19.42589005 35.99851654 19.42589005 35.99851654 18.23901367 37.1809082 C17.42599289 38.00239853 16.61297211 38.82388885 15.77531433 39.67027283 C13.08068355 42.38833876 10.37495451 45.09502336 7.66796875 47.80078125 C6.2684277 49.20562596 4.86888955 50.61047368 3.46982461 52.01579255 C-0.92786936 56.4327178 -5.33368823 60.84142342 -9.74438477 65.24536133 C-14.29807502 69.79240236 -18.83678409 74.35402015 -23.36858159 78.92287189 C-27.2586174 82.84355865 -31.15820779 86.75456039 -35.06554812 90.6580016 C-37.39985051 92.99023263 -39.7290432 95.3271867 -42.05118752 97.67153358 C-44.63937456 100.28173576 -47.24279488 102.87571521 -49.85083008 105.46606445 C-50.62033997 106.24883759 -51.38984985 107.03161072 -52.18267822 107.83810425 C-52.89352066 108.53773788 -53.6043631 109.23737152 -54.33674622 109.95820618 C-54.95120511 110.57337758 -55.56566401 111.18854898 -56.19874287 111.82236195 C-58 113 -58 113 -60.0628767 112.83490276 C-63.18678688 111.48849325 -65.30865907 109.05590595 -67.640625 106.65234375 C-68.16767029 106.12105362 -68.69471558 105.58976349 -69.23773193 105.04237366 C-70.91567187 103.34767175 -72.58286728 101.64282783 -74.25 99.9375 C-75.38732745 98.78512255 -76.52534066 97.63342148 -77.6640625 96.48242188 C-80.45071992 93.66272816 -83.22778792 90.83389412 -86 88 C-84.60961241 84.86650313 -82.9925774 82.74483836 -80.57052612 80.33001709 C-79.86098785 79.61772949 -79.15144958 78.90544189 -78.42041016 78.17156982 C-77.64213867 77.40048889 -76.86386719 76.62940796 -76.06201172 75.83496094 C-74.83262375 74.60513489 -74.83262375 74.60513489 -73.57839966 73.35046387 C-70.86687568 70.64033376 -68.14833508 67.93735752 -65.4296875 65.234375 C-63.5488083 63.35722571 -61.66832513 61.479688 -59.7883606 59.60162354 C-55.34417974 55.16365594 -50.89492578 50.73081075 -46.44382393 46.29978585 C-41.37584024 41.25416591 -36.31354229 36.20285784 -31.25171256 31.15106535 C-20.84078771 20.76103903 -10.42274494 10.37816928 0 0 Z " fill="#61B7FE" transform="translate(394,270)"/>
<path d="M0 0 C7.55604005 4.69040225 13.79856109 11.95913483 20.0554657 18.18687439 C20.52981741 18.65839872 21.00416912 19.12992306 21.49289513 19.61573601 C23.99534783 22.10333093 26.49501672 24.59368166 28.99223328 27.08653259 C31.55868352 29.64746733 34.13431072 32.19896373 36.71212482 34.74845219 C38.70837548 36.72603976 40.69784825 38.71034204 42.6855526 40.69651604 C44.08945424 42.09595359 45.50040995 43.48830319 46.91149902 44.88049316 C47.76636398 45.73835922 48.62122894 46.59622528 49.5019989 47.48008728 C50.2528627 48.22730545 51.0037265 48.97452362 51.77734375 49.74438477 C56.59429081 55.45657095 57.44198115 60.58896367 57.2039032 67.86265564 C55.69025245 78.73461669 44.27415092 86.84786892 36.75468445 94.08921814 C33.87137801 92.78238115 31.80904337 91.39199677 29.57823181 89.15327454 C28.97532822 88.55312027 28.37242462 87.952966 27.75125122 87.33462524 C27.10172989 86.67791336 26.45220856 86.02120148 25.78300476 85.34458923 C25.08991714 84.65179367 24.39682953 83.95899811 23.68273926 83.24520874 C21.39465645 80.9557334 19.11373794 78.65925684 16.83280945 76.36265564 C15.24712525 74.77324105 13.66099871 73.18426766 12.07444763 71.59571838 C7.90090591 67.41454229 3.73340528 63.22739468 -0.43287659 59.03898621 C-4.68574274 54.76565751 -8.94427974 50.49798841 -13.2023468 46.22984314 C-21.55557114 37.85517233 -29.90242603 29.47418371 -38.24531555 21.08921814 C-35.8875948 16.16210286 -32.39212622 12.86794371 -28.55781555 9.02671814 C-27.86236633 8.30677673 -27.16691711 7.58683533 -26.45039368 6.84507751 C-18.90446073 -0.74312956 -10.42958033 -5.06912563 0 0 Z " fill="#FE76A7" transform="translate(455.2453155517578,227.91078186035156)"/>
<path d="M0 0 C1.941637 1.846923 3.57932801 3.61138325 5.28857422 5.6496582 C11.33569288 12.59629238 17.98679776 18.98411303 24.5078125 25.48046875 C25.96578563 26.93657313 27.42353541 28.39290117 28.881073 29.84944153 C32.70076886 33.66533916 36.52345656 37.4782256 40.34680176 41.29046631 C44.23431502 45.16774127 48.11899544 49.04785215 52.00390625 52.92773438 C58.27727357 59.19233666 64.55234757 65.45522312 70.82971191 71.71582031 C71.91152966 72.79480628 72.99243534 73.87470781 74.07223892 74.95570946 C75.49700087 76.37237317 76.93998766 77.77063692 78.38375854 79.16792297 C81.38673276 82.29609647 82.52381196 85.02433368 82.59375 89.38671875 C82.21767096 94.32275609 80.79261386 97.57930844 77.5625 101.4375 C73.24959822 104.81788247 68.94964746 105.75183755 63.5 105.24609375 C58.1439771 104.03142427 55.3161437 101.36710764 51.75805664 97.28491211 C47.35460226 92.33647286 42.80252425 87.58068785 38.10327148 82.91235352 C37.43544175 82.24874785 36.76761202 81.58514219 36.07954502 80.90142727 C34.67630781 79.50950627 33.27219787 78.11846462 31.86727715 76.72824287 C29.63208628 74.51541409 27.40117201 72.29835323 25.17140198 70.08006287 C18.84116205 63.78312609 12.50645642 57.49073072 6.16186523 51.20825195 C2.2589237 47.34292553 -1.63669264 43.47034564 -5.52769279 39.59300041 C-7.00531724 38.12342001 -8.48571202 36.65661958 -9.96893501 35.1926899 C-12.03381719 33.15424977 -14.08926666 31.10672599 -16.14282227 29.05688477 C-16.75420044 28.45786346 -17.36557861 27.85884216 -17.9954834 27.2416687 C-22.46747135 22.74825072 -24.70982954 18.99904005 -24.8125 12.5 C-24.70624835 7.73992587 -23.69529823 5.04749263 -20.4375 1.4375 C-14.55569885 -3.17256036 -6.38519512 -4.0930738 0 0 Z " fill="#FDEF56" transform="translate(414.4375,244.5625)"/>
<path d="M0 0 C2.83670148 1.29050861 4.89068702 2.64212057 7.08706665 4.84655762 C7.67025162 5.42699326 8.25343658 6.00742889 8.85429382 6.60545349 C9.48197159 7.24032181 10.10964935 7.87519012 10.75634766 8.52929688 C11.42671555 9.19937271 12.09708344 9.86944855 12.7877655 10.55982971 C15.00130505 12.77476191 17.20767592 14.99669423 19.4140625 17.21875 C20.95011454 18.75853321 22.48660952 20.29787467 24.02352905 21.83679199 C28.06807317 25.88897112 32.1065773 29.94711845 36.14385986 34.00653076 C40.25635853 38.13946496 44.37450065 42.26676721 48.4921875 46.39453125 C56.22906144 54.15190345 63.96037582 61.91478805 71.68747902 69.6818924 C72.79023479 70.78934195 73.89489484 71.89489484 75 73 C68.59128959 77.37504865 63.80801031 79.7481287 56 80 C56 82.97 56 85.94 56 89 C55.67 89 55.34 89 55 89 C55 86.03 55 83.06 55 80 C53.60394531 80.0721875 52.20789063 80.144375 50.76953125 80.21875 C38.97708077 80.79302465 27.18064666 81.16906621 15.375 81.3125 C14.1372583 81.34214844 12.8995166 81.37179687 11.62426758 81.40234375 C0.7134741 81.47461562 0.7134741 81.47461562 -4 77 C-9.22394594 70.97989117 -8.18976174 63.44964195 -8 56 C-7.97999939 55.16902802 -7.95999878 54.33805603 -7.93939209 53.48190308 C-7.79036165 47.58792779 -7.59231228 41.69688165 -7.36523438 35.80541992 C-7.28809033 33.71811794 -7.21849012 31.63052416 -7.15625 29.54272461 C-7.06459799 26.48980582 -6.94888373 23.43860846 -6.828125 20.38671875 C-6.80502258 19.46259689 -6.78192017 18.53847504 -6.75811768 17.58634949 C-6.44800187 10.73161922 -4.96382244 4.96382244 0 0 Z " fill="#FEDECE" transform="translate(307,358)"/>
<path d="M0 0 C1.92875977 0.00966797 1.92875977 0.00966797 3.89648438 0.01953125 C5.23437779 0.03623649 6.57226842 0.05316631 7.91015625 0.0703125 C9.27538408 0.08035928 10.64061905 0.08948214 12.00585938 0.09765625 C15.32830824 0.12113645 18.65038946 0.15397891 21.97265625 0.1953125 C19.05072519 2.14326654 16.24222729 3.39207649 13.0078125 4.70703125 C9.88709933 6.98916506 8.27251965 9.62219507 6.97265625 13.1953125 C6.39548032 17.71820114 6.4357729 22.20341875 6.4765625 26.7578125 C6.47437965 28.71569702 6.47437965 28.71569702 6.47215271 30.71313477 C6.47077362 33.46684115 6.48324301 36.22002358 6.50610352 38.97363281 C6.53448757 42.48735432 6.53174468 46.00020646 6.5190134 49.51399231 C6.51035031 52.88702183 6.52551662 56.25979759 6.5390625 59.6328125 C6.53612686 60.88715088 6.53319122 62.14148926 6.53016663 63.43383789 C6.61647332 71.45011573 7.12306845 76.74581148 12.34765625 83.0703125 C16.97458234 86.67034428 23.37143059 86.10389784 28.97265625 86.1953125 C28.97265625 86.5253125 28.97265625 86.8553125 28.97265625 87.1953125 C23.54668445 87.29459835 18.12124784 87.36697717 12.69458008 87.41503906 C10.85073631 87.43508611 9.00695557 87.4623313 7.16333008 87.49707031 C4.50456135 87.54589458 1.8466371 87.56835022 -0.8125 87.5859375 C-1.62944839 87.60658264 -2.44639679 87.62722778 -3.2881012 87.64849854 C-9.03147133 87.65072236 -12.29312513 86.47826655 -17.02734375 83.1953125 C-21.14543844 78.8546181 -23.02734375 75.19624486 -23.02734375 69.1953125 C-34.90734375 69.1953125 -46.78734375 69.1953125 -59.02734375 69.1953125 C-59.02734375 68.8653125 -59.02734375 68.5353125 -59.02734375 68.1953125 C-47.14734375 68.1953125 -35.26734375 68.1953125 -23.02734375 68.1953125 C-23.06214844 64.29460937 -23.09695312 60.39390625 -23.1328125 56.375 C-23.15621674 52.59212984 -23.17442846 48.80926778 -23.19213867 45.02636719 C-23.20721395 42.39970279 -23.22767741 39.77306351 -23.25366211 37.14648438 C-23.29009951 33.36842646 -23.30708313 29.59070173 -23.3203125 25.8125 C-23.33579636 24.64040985 -23.35128021 23.4683197 -23.36723328 22.26071167 C-23.36934309 12.01217321 -23.36934309 12.01217321 -20.02734375 7.1953125 C-14.09513942 1.26310817 -8.22343761 -0.07309722 0 0 Z " fill="#FEE177" transform="translate(118.02734375,5.8046875)"/>
<path d="M0 0 C5.44043932 3.11197543 9.41747053 7.77059452 12.25 13.3125 C13.3492494 19.54157994 14.26448825 25.85242017 10.6875 31.375 C8.44043171 34.2947666 8.44043171 34.2947666 9.4375 37.125 C9.89125 37.90875 10.345 38.6925 10.8125 39.5 C13.79518107 45.96793843 13.71860364 52.47965452 11.6875 59.25 C8.57239187 64.64952076 5.1379975 69.87384833 -1.00390625 72.0625 C-7.10192772 73.28428605 -14.36940382 73.89806932 -20.0625 71 C-25.75055323 66.99992266 -30.8310694 61.43286752 -32.1875 54.5 C-32.65453553 50.68587649 -32.49738539 49.03634009 -30.5625 45.6875 C-27.61386759 42.97165436 -26.19923627 42.33953055 -22.1875 42.5 C-18.73928199 44.55566843 -16.820555 45.86611519 -15.3671875 49.6171875 C-14.8772526 51.55622563 -14.52171249 53.52814629 -14.1875 55.5 C-10.88182511 56.35387105 -10.88182511 56.35387105 -7.1875 56.5 C-4.5405128 55.10314994 -4.5405128 55.10314994 -3.1875 52.5 C-3.09857661 49.36637282 -3.09857661 49.36637282 -4.1875 46.5 C-7.1048173 44.31221218 -7.1048173 44.31221218 -10.6875 43.625 C-14.1875 42.5 -14.1875 42.5 -16.125 40.75 C-17.54906573 37.73433139 -17.66850767 35.79833831 -17.1875 32.5 C-14.96076438 29.15989657 -12.83632074 28.28146355 -9.0625 27.4375 C-4.97200476 26.91156058 -4.97200476 26.91156058 -3.1875 23.5 C-2.83809541 20.70476326 -2.81516213 19.1351646 -4.25 16.6875 C-7.34748772 14.78903979 -9.65473617 14.99531945 -13.1875 15.5 C-14.99623468 17.6798125 -14.99623468 17.6798125 -16.1875 20.5 C-17.9375 23.3125 -17.9375 23.3125 -20.1875 25.5 C-24.12061127 26.13210717 -26.21217068 26.10020266 -29.625 24 C-31.84844023 20.44249563 -32.10270819 17.4987558 -31.1875 13.5 C-28.14715622 6.84231289 -23.74581854 2.63233124 -17.1875 -0.5 C-11.55502643 -2.37749119 -5.48141528 -2.43023685 0 0 Z " fill="#71D7A4" transform="translate(110.1875,329.5)"/>
<path d="M0 0 C5.42438771 3.27092907 9.96477167 9.35908668 11.5 15.5 C13.06039344 30.84386883 1.10416427 43.94583656 -7.5 55.5 C-5.85451172 55.53867187 -5.85451172 55.53867187 -4.17578125 55.578125 C-2.72131552 55.6344269 -1.26688997 55.69177377 0.1875 55.75 C0.90873047 55.76417969 1.62996094 55.77835937 2.37304688 55.79296875 C7.23954693 56.01518336 10.03784867 56.76946484 13.5 60.5 C14.11729888 64.3409708 14.23314193 66.45347354 11.97045898 69.68334961 C8.56402024 72.1882721 5.48237822 72.09329614 1.41015625 72.06640625 C0.62861679 72.07260483 -0.15292267 72.07880341 -0.95814514 72.08518982 C-2.60807044 72.09228103 -4.2580674 72.08912605 -5.90795898 72.07641602 C-8.4263144 72.06256154 -10.94094345 72.09660976 -13.45898438 72.13476562 C-15.06510507 72.13571702 -16.6712304 72.13385691 -18.27734375 72.12890625 C-19.40099586 72.14879356 -19.40099586 72.14879356 -20.54734802 72.16908264 C-24.517019 72.09875722 -26.33278406 71.63023222 -29.50024414 69.16333008 C-31.5 66.5 -31.5 66.5 -31.71875 63.2578125 C-30.06439582 58.15688711 -27.2822877 54.56521767 -24 50.375 C-22.72256675 48.69506768 -21.44652865 47.01407357 -20.171875 45.33203125 C-19.54603516 44.51299316 -18.92019531 43.69395508 -18.27539062 42.85009766 C-15.85213129 39.64241142 -13.53192582 36.37168118 -11.25 33.0625 C-10.22132812 31.57943359 -10.22132812 31.57943359 -9.171875 30.06640625 C-6.05882723 25.28773246 -4.95873617 22.34564937 -5.5 16.5 C-8.97042703 14.18638198 -10.41834173 13.98979272 -14.5 14.5 C-16.30453646 16.1549514 -16.30453646 16.1549514 -17.5 18.5 C-20.26923077 23.34615385 -20.26923077 23.34615385 -23.5 25.5 C-27.29459397 25.41926396 -29.02373143 24.90299648 -31.9375 22.4375 C-33.6400284 19.23674661 -33.91061207 17.18625639 -33.23046875 13.6171875 C-31.13731042 7.55038636 -26.51672639 2.49506593 -20.96875 -0.65234375 C-14.42455692 -2.89932144 -6.38503359 -2.7381971 0 0 Z " fill="#71D7A4" transform="translate(110.5,239.5)"/>
<path d="M0 0 C1.4813443 -0.01073296 1.4813443 -0.01073296 2.99261475 -0.02168274 C6.25336116 -0.03857583 9.51273397 -0.01916265 12.7734375 0.00219727 C15.04117954 0.00136863 17.30892153 -0.00109055 19.57666016 -0.00511169 C24.32798352 -0.00797013 29.0788356 0.00673664 33.83007812 0.03417969 C39.92011815 0.06826194 46.00931539 0.06224435 52.09939575 0.04351711 C56.78172834 0.03294813 61.46386485 0.04188415 66.1461792 0.05690193 C68.39165668 0.06208491 70.63715462 0.06160056 72.88262939 0.05535698 C76.0211591 0.04990621 79.15848271 0.07027669 82.296875 0.09765625 C83.22481873 0.09113037 84.15276245 0.08460449 85.10882568 0.07788086 C89.32274202 0.14038272 91.57059347 0.27240323 95.22265625 2.53944397 C97.29033947 4.7852283 97.83213587 5.62574719 97.7734375 8.63110352 C97.79277344 9.62110352 97.79277344 9.62110352 97.8125 10.63110352 C96.73418581 13.87873213 95.03983383 14.83625122 92.1484375 16.63110352 C88.86587204 17.22533701 85.62574061 17.18796144 82.296875 17.16455078 C80.8155307 17.17747414 80.8155307 17.17747414 79.30426025 17.19065857 C76.04371851 17.21333944 72.7840347 17.20657591 69.5234375 17.19750977 C67.25569401 17.20274414 64.98795271 17.20901993 62.72021484 17.21629333 C57.96897125 17.2267013 53.21802709 17.22212975 48.46679688 17.20751953 C42.37667497 17.19032557 36.28749595 17.21383337 30.19747925 17.24900913 C25.51515444 17.27096293 20.83305598 17.26954656 16.1506958 17.26124382 C13.90520188 17.26042331 11.6596915 17.26730559 9.41424561 17.28201485 C6.27557282 17.2994241 3.13860403 17.28494752 0 17.26220703 C-1.39191559 17.27974533 -1.39191559 17.27974533 -2.81195068 17.29763794 C-7.31496014 17.23121821 -9.24941877 17.09141055 -12.92822266 14.27915955 C-14.8515625 11.63110352 -14.8515625 11.63110352 -15.4765625 8.63110352 C-13.70123534 0.10953316 -7.28913425 -0.09184395 0 0 Z " fill="#6C636C" transform="translate(158.8515625,181.368896484375)"/>
<path d="M0 0 C1.00853027 -0.00700928 2.01706055 -0.01401855 3.05615234 -0.02124023 C6.39188114 -0.03885406 9.72676248 -0.02718497 13.0625 -0.01367188 C15.37890791 -0.0163658 17.69531472 -0.02024739 20.01171875 -0.02526855 C24.86729698 -0.03116822 29.72258096 -0.02258526 34.578125 -0.00390625 C40.80614646 0.01888316 47.03347845 0.00576265 53.26147461 -0.01819611 C58.04497485 -0.0326412 62.82831127 -0.02805393 67.61181641 -0.01768494 C69.90836671 -0.0150141 72.20493183 -0.01829988 74.50146484 -0.02760315 C77.7097114 -0.03774714 80.91683706 -0.02229671 84.125 0 C85.55271729 -0.01214539 85.55271729 -0.01214539 87.00927734 -0.02453613 C93.40613495 0.05794315 93.40613495 0.05794315 96.65234375 2.33117676 C98.7339964 5.55871144 98.59862312 7.76471629 98.0625 11.51757812 C96.65234375 13.70298767 96.65234375 13.70298767 94.0625 15.51757812 C90.75441837 16.12368251 87.48044438 16.07403123 84.125 16.05102539 C82.61220459 16.06394875 82.61220459 16.06394875 81.06884766 16.07713318 C77.73313784 16.09984728 74.39826435 16.09304437 71.0625 16.08398438 C68.7460912 16.0892173 66.42968454 16.09549256 64.11328125 16.10276794 C59.25771052 16.11318208 54.40243268 16.10859557 49.546875 16.09399414 C43.31875018 16.07680006 37.09154732 16.10030497 30.86352539 16.13548374 C26.08001571 16.1574232 21.29672784 16.15602464 16.51318359 16.14771843 C14.21662382 16.14689712 11.92004806 16.15379464 9.62353516 16.16848946 C6.41511003 16.18587205 3.20835722 16.17144424 0 16.14868164 C-0.95181152 16.16037384 -1.90362305 16.17206604 -2.88427734 16.18411255 C-9.30476191 16.09123933 -9.30476191 16.09123933 -12.52734375 13.16954041 C-14.25146587 9.92712891 -14.55377449 8.13819074 -13.9375 4.51757812 C-10.46106068 -0.78585765 -5.74084389 -0.04883653 0 0 Z " fill="#685E68" transform="translate(157.9375,266.482421875)"/>
<path d="M0 0 C1.00853027 -0.00700928 2.01706055 -0.01401855 3.05615234 -0.02124023 C6.39188114 -0.03885406 9.72676248 -0.02718497 13.0625 -0.01367188 C15.37890791 -0.0163658 17.69531472 -0.02024739 20.01171875 -0.02526855 C24.86729698 -0.03116822 29.72258096 -0.02258526 34.578125 -0.00390625 C40.80614646 0.01888316 47.03347845 0.00576265 53.26147461 -0.01819611 C58.04497485 -0.0326412 62.82831127 -0.02805393 67.61181641 -0.01768494 C69.90836671 -0.0150141 72.20493183 -0.01829988 74.50146484 -0.02760315 C77.7097114 -0.03774714 80.91683706 -0.02229671 84.125 0 C85.55271729 -0.01214539 85.55271729 -0.01214539 87.00927734 -0.02453613 C93.40613495 0.05794315 93.40613495 0.05794315 96.65234375 2.33117676 C98.7339964 5.55871144 98.59862312 7.76471629 98.0625 11.51757812 C96.65234375 13.70298767 96.65234375 13.70298767 94.0625 15.51757812 C90.75441837 16.12368251 87.48044438 16.07403123 84.125 16.05102539 C82.61220459 16.06394875 82.61220459 16.06394875 81.06884766 16.07713318 C77.73313784 16.09984728 74.39826435 16.09304437 71.0625 16.08398438 C68.7460912 16.0892173 66.42968454 16.09549256 64.11328125 16.10276794 C59.25771052 16.11318208 54.40243268 16.10859557 49.546875 16.09399414 C43.31875018 16.07680006 37.09154732 16.10030497 30.86352539 16.13548374 C26.08001571 16.1574232 21.29672784 16.15602464 16.51318359 16.14771843 C14.21662382 16.14689712 11.92004806 16.15379464 9.62353516 16.16848946 C6.41511003 16.18587205 3.20835722 16.17144424 0 16.14868164 C-0.95181152 16.16037384 -1.90362305 16.17206604 -2.88427734 16.18411255 C-9.30476191 16.09123933 -9.30476191 16.09123933 -12.52734375 13.16954041 C-14.25146587 9.92712891 -14.55377449 8.13819074 -13.9375 4.51757812 C-10.46106068 -0.78585765 -5.74084389 -0.04883653 0 0 Z " fill="#685E68" transform="translate(157.9375,357.482421875)"/>
<path d="M0 0 C7.67512855 4.76063096 13.94918548 12.16110491 20.25390625 18.52539062 C21.17171875 19.44771484 22.08953125 20.37003906 23.03515625 21.3203125 C25.2770568 23.57388961 27.51657225 25.82978138 29.75390625 28.08789062 C26.75390625 28.08789062 26.75390625 28.08789062 24.06640625 27.08789062 C19.51528013 25.71396576 15.31559135 24.92140299 10.89990234 26.93212891 C5.28581367 30.4206226 0.83096646 34.65804769 -3.74609375 39.40039062 C-4.473125 40.14095703 -5.20015625 40.88152344 -5.94921875 41.64453125 C-7.72196256 43.45226342 -9.48725332 45.26664593 -11.24609375 47.08789062 C-17.42744244 41.98340241 -23.04432253 36.4049412 -28.68359375 30.71289062 C-29.60591797 29.78605469 -30.52824219 28.85921875 -31.47851562 27.90429688 C-33.73668 25.63443217 -35.99246317 23.36225525 -38.24609375 21.08789062 C-36.03922335 16.12672509 -32.34888878 12.82252117 -28.55859375 9.02539062 C-27.86314453 8.30544922 -27.16769531 7.58550781 -26.45117188 6.84375 C-18.90664633 -0.74304179 -10.42751891 -5.07379276 0 0 Z " fill="#FE5794" transform="translate(455.24609375,227.912109375)"/>
<path d="M0 0 C2.9375 2.0625 2.9375 2.0625 5 5 C4.77806814 10.47665239 3.00181911 14.4112232 0.16796875 18.98046875 C-0.22021027 19.62746735 -0.60838928 20.27446594 -1.0083313 20.94107056 C-2.26525753 23.03017811 -3.53836182 25.10885378 -4.8125 27.1875 C-5.68207707 28.62333322 -6.55064336 30.05977906 -7.41821289 31.49682617 C-9.14050594 34.34708669 -10.86861347 37.19369845 -12.60058594 40.03808594 C-14.69664873 43.48802425 -16.75202733 46.96011628 -18.7890625 50.4453125 C-19.33071045 51.36803955 -19.8723584 52.2907666 -20.43041992 53.24145508 C-21.40705538 54.90757334 -22.37888533 56.57652155 -23.3449707 58.2487793 C-27.54366942 65.34069898 -27.54366942 65.34069898 -31 67 C-34.31857077 67.44161859 -36.15217737 67.60731785 -38.9140625 65.62890625 C-45.42257122 57.76817312 -51.23397842 49.4135218 -57 41 C-57.40532959 40.4237085 -57.81065918 39.84741699 -58.22827148 39.25366211 C-59.99266442 36.70710345 -60.99430566 35.03100253 -61.5625 31.9375 C-60.77756673 27.83840403 -59.39380144 26.38288186 -56 24 C-52.6875 23.5625 -52.6875 23.5625 -49 25 C-43.42801889 30.51798904 -39.20144555 37.41136947 -35 44 C-31.93850326 40.35207811 -29.48092817 36.60673022 -27.1015625 32.484375 C-26.74411957 31.8691095 -26.38667664 31.25384399 -26.0184021 30.61993408 C-24.88339465 28.66550315 -23.75370941 26.70807387 -22.625 24.75 C-7.80713701 -0.91848671 -7.80713701 -0.91848671 0 0 Z " fill="#FD78A9" transform="translate(331,246)"/>
<path d="M0 0 C3.02245069 0.08792584 4.0062956 0.29784214 6.625 2 C8.57614625 5.08931489 8.45165338 6.75221667 8.125 10.375 C6.81835938 13.30566406 6.81835938 13.30566406 4.96875 16.390625 C4.4674205 17.23861916 4.4674205 17.23861916 3.95596313 18.10374451 C2.85847855 19.95218181 1.74239817 21.78854394 0.625 23.625 C-0.14299187 24.90676791 -0.91007058 26.18908336 -1.67626953 27.47192383 C-3.66239043 30.78834761 -5.66594183 34.09388122 -7.67443848 37.39678955 C-8.85512571 39.34225239 -10.02974797 41.29123313 -11.20214844 43.24169922 C-13.02966551 46.28176293 -14.86478628 49.31706199 -16.70776367 52.34777832 C-17.73545775 54.0385746 -18.75935856 55.7316746 -19.78320312 57.42480469 C-20.40904297 58.44348633 -21.03488281 59.46216797 -21.6796875 60.51171875 C-22.22608887 61.40592529 -22.77249023 62.30013184 -23.33544922 63.22143555 C-25.392834 66.09935993 -27.18343181 67.21782541 -30.625 68 C-38.65527269 66.45571679 -43.95206768 55.26776023 -48.4296875 48.84765625 C-49.93571706 46.68901388 -51.47276951 44.5910923 -53.0703125 42.49609375 C-55.92448745 38.71171198 -57.72465131 36.2224199 -58.5625 31.5 C-57.74665256 27.79160257 -57.04761714 26.46224812 -53.875 24.375 C-50.25384946 23.75863395 -48.57451418 23.90634859 -45.5078125 25.9609375 C-42.35408804 28.85263144 -40.08691037 31.9789288 -37.6875 35.5 C-34.54660175 40.15038018 -34.54660175 40.15038018 -30.875 44.375 C-30.40191406 43.56458252 -29.92882812 42.75416504 -29.44140625 41.91918945 C-27.6458964 38.84507884 -25.84901499 35.77177797 -24.05126953 32.69897461 C-23.28088189 31.38157657 -22.51100564 30.06387933 -21.74169922 28.74584961 C-17.694214 21.81221643 -13.62197458 14.89503382 -9.4375 8.04296875 C-8.48037109 6.47518677 -8.48037109 6.47518677 -7.50390625 4.87573242 C-4.61916588 0.44701605 -4.61916588 0.44701605 0 0 Z " fill="#FD78A9" transform="translate(327.875,159.625)"/>
<path d="M0 0 C4.16758232 3.69594235 7.58896263 8.04918439 8.37109375 13.6640625 C8.53815019 21.11281457 7.6144524 26.97250954 3 33 C-3.06692558 38.12265701 -9.02054523 39.4765208 -16.8515625 39.41015625 C-23.30240305 38.5697862 -27.44345844 34.91574346 -31.4375 30 C-34.64752624 23.83674962 -36.4489307 17.79614402 -34.3828125 10.95703125 C-31.55047458 4.47774495 -26.56307461 0.0487679 -20.5 -3.4375 C-12.95681381 -5.13471689 -6.66866969 -3.82500619 0 0 Z " fill="#6A5F67" transform="translate(216,58)"/>
<path d="M0 0 C0.74636719 -0.01095703 1.49273437 -0.02191406 2.26171875 -0.03320312 C6.17129 0.01869384 8.10246965 0.3067206 11.46875 2.47265625 C14.69665939 5.79367841 14.63202399 7.77323843 14.66113281 12.30981445 C14.67074036 13.5147908 14.6803479 14.71976715 14.69024658 15.96125793 C14.69449646 17.26955063 14.69874634 18.57784332 14.703125 19.92578125 C14.70887745 21.27857973 14.71463518 22.6313782 14.72039795 23.98417664 C14.73090851 26.82303243 14.73675048 29.66185991 14.74023438 32.50073242 C14.74571261 36.13239637 14.76972551 39.76368415 14.79820633 43.39523029 C14.81686454 46.19112731 14.82204003 48.98693441 14.82357025 51.78288841 C14.82805764 53.77093726 14.84669097 55.75893791 14.86553955 57.74690247 C14.86253845 58.9613353 14.85953735 60.17576813 14.85644531 61.42700195 C14.86009094 62.49352493 14.86373657 63.56004791 14.86749268 64.65888977 C14.44570058 67.9915272 13.47921966 69.87158962 11.5 72.5625 C8.37139505 74.12680248 5.94397075 73.91877284 2.5 73.5625 C-0.20624982 71.37259784 -1.36009969 69.56638298 -1.84338379 66.09848022 C-1.96425819 62.95751173 -1.94899247 59.84199406 -1.890625 56.69921875 C-1.88496521 55.55209915 -1.87930542 54.40497955 -1.87347412 53.22309875 C-1.85111197 49.56497187 -1.80091327 45.90783006 -1.75 42.25 C-1.72993491 39.76759229 -1.71168416 37.2851692 -1.6953125 34.80273438 C-1.65124759 28.72232105 -1.58433594 22.64248091 -1.5 16.5625 C-2.59441406 16.60632813 -3.68882813 16.65015625 -4.81640625 16.6953125 C-8.5 16.5625 -8.5 16.5625 -11.4375 14.4375 C-13.5 11.5625 -13.5 11.5625 -14.125 8.5625 C-12.49318793 0.72980209 -6.88269267 -0.21991332 0 0 Z " fill="#73D8A6" transform="translate(94.5,152.4375)"/>
<path d="M0 0 C8.76206027 -0.67113653 15.57406581 0.65308918 22.67578125 6.0234375 C30.09124057 12.46115478 36.16823216 19.08164732 38 29 C38.09396035 32.00289612 38.06941748 34.99678042 38 38 C33.9799737 38.09941096 29.96043037 38.17172063 25.93945312 38.21972656 C24.57376632 38.23975319 23.20816431 38.26698332 21.84277344 38.30175781 C19.87212898 38.35066432 17.90084017 38.37091347 15.9296875 38.390625 C14.74616699 38.41157227 13.56264648 38.43251953 12.34326172 38.45410156 C7.74679336 37.82978207 4.57392721 35.81380381 1.5390625 32.31640625 C-3.51680806 22.61518454 -0.96115206 10.48685555 0 0 Z " fill="#6A606A" transform="translate(300,401)"/>
<path d="M0 0 C20.42560057 -1.00125493 20.42560057 -1.00125493 28 5 C31.31656813 8.12627324 33.97449228 11.6334404 36.703125 15.26953125 C45.1734736 26.46794257 55.4316782 33.82356461 69 38 C69 38.33 69 38.66 69 39 C53.52168659 42.83837208 37.29555698 39.7334029 23.69140625 31.8125 C13.30869808 24.82037142 4.06240437 15.06594731 0 3 C0 2.01 0 1.02 0 0 Z " fill="#FEE177" transform="translate(148,93)"/>
<path d="M0 0 C1.2684375 -0.00478363 2.536875 -0.00956726 3.84375 -0.01449585 C6.52430824 -0.01789684 9.20258142 -0.01121028 11.8828125 0.01220703 C15.30975855 0.04069708 18.73474681 0.02428549 22.16162109 -0.00565529 C25.44114993 -0.02811794 28.72044556 -0.01236811 32 0 C33.2271875 -0.01012115 34.454375 -0.02024231 35.71875 -0.03067017 C45.17692424 0.09955614 45.17692424 0.09955614 48.2734375 3.01806641 C50.42019006 6.30801328 50.80242322 7.81243106 50 11.6640625 C48.34332409 14.20295582 47.57819176 15.23050471 45 16.6640625 C40.67234896 17.42751461 36.3850203 17.36429019 32 17.328125 C30.7315625 17.33290863 29.463125 17.33769226 28.15625 17.34262085 C25.47569176 17.34602184 22.79741858 17.33933528 20.1171875 17.31591797 C16.69024145 17.28742792 13.26525319 17.30383951 9.83837891 17.33378029 C6.55885007 17.35624294 3.27955444 17.34049311 0 17.328125 C-1.2271875 17.33824615 -2.454375 17.34836731 -3.71875 17.35879517 C-13.17692424 17.22856886 -13.17692424 17.22856886 -16.2734375 14.31005859 C-18.42019006 11.02011172 -18.80242322 9.51569394 -18 5.6640625 C-13.60662363 -1.06888619 -7.43873236 -0.0613505 0 0 Z " fill="#6D646D" transform="translate(162,207.3359375)"/>
<path d="M0 0 C1.16478378 -0.01260864 2.32956757 -0.02521729 3.52964783 -0.03820801 C4.78387039 -0.03011108 6.03809296 -0.02201416 7.33032227 -0.01367188 C8.62237076 -0.01749878 9.91441925 -0.02132568 11.24562073 -0.02526855 C13.97855793 -0.03115942 16.71097145 -0.0226165 19.44384766 -0.00390625 C22.93895226 0.01886184 26.43282672 0.00577335 29.92788601 -0.01819611 C33.27046201 -0.03616866 36.61271135 -0.02356499 39.95532227 -0.01367188 C41.2075206 -0.0217688 42.45971893 -0.02986572 43.74986267 -0.03820801 C44.91779861 -0.02559937 46.08573456 -0.01299072 47.2890625 0 C48.31402328 0.00318237 49.33898407 0.00636475 50.39500427 0.00964355 C53.97818266 0.65636536 55.66553765 1.94891555 58.20922852 4.51757812 C58.77172852 8.01757812 58.77172852 8.01757812 58.20922852 11.51757812 C56.10531797 14.27784342 54.92323212 15.38482705 51.47729492 16.0255127 C49.90987549 16.03028625 49.90987549 16.03028625 48.31079102 16.03515625 C46.52874268 16.05406921 46.52874268 16.05406921 44.71069336 16.07336426 C43.43145996 16.06526733 42.15222656 16.05717041 40.83422852 16.04882812 C39.5176123 16.05265503 38.20099609 16.05648193 36.84448242 16.0604248 C34.06027417 16.06631536 31.27658002 16.05777226 28.49243164 16.0390625 C24.92773519 16.01627188 21.36424334 16.02939753 17.79959106 16.05335236 C14.39437421 16.07130143 10.98947958 16.0587259 7.58422852 16.04882812 C6.30499512 16.05692505 5.02576172 16.06502197 3.70776367 16.07336426 C2.51973145 16.06075562 1.33169922 16.04814697 0.10766602 16.03515625 C-0.93728027 16.03197388 -1.98222656 16.0287915 -3.05883789 16.0255127 C-6.50454123 15.38487053 -7.6899173 14.28030935 -9.79077148 11.51757812 C-10.29077148 8.01757812 -10.29077148 8.01757812 -9.79077148 4.51757812 C-6.83655357 0.64829013 -4.78686996 0.01487417 0 0 Z " fill="#685E68" transform="translate(153.790771484375,292.482421875)"/>
<path d="M0 0 C1.18803223 -0.01260864 2.37606445 -0.02521729 3.60009766 -0.03820801 C4.87933105 -0.03011108 6.15856445 -0.02201416 7.4765625 -0.01367188 C8.79317871 -0.01749878 10.10979492 -0.02132568 11.46630859 -0.02526855 C14.25051684 -0.03115911 17.03421099 -0.02261601 19.81835938 -0.00390625 C23.38305583 0.01888437 26.94654768 0.00575872 30.51119995 -0.01819611 C33.9164168 -0.03614518 37.32131144 -0.02356965 40.7265625 -0.01367188 C42.6454126 -0.02581726 42.6454126 -0.02581726 44.60302734 -0.03820801 C46.38507568 -0.01929504 46.38507568 -0.01929504 48.203125 0 C49.24807129 0.00318237 50.29301758 0.00636475 51.36962891 0.00964355 C54.81533224 0.65028572 56.00070832 1.7548469 58.1015625 4.51757812 C58.6015625 8.01757812 58.6015625 8.01757812 58.1015625 11.51757812 C56.00070832 14.28030935 54.81533224 15.38487053 51.36962891 16.0255127 C49.80220947 16.03028625 49.80220947 16.03028625 48.203125 16.03515625 C46.42107666 16.05406921 46.42107666 16.05406921 44.60302734 16.07336426 C43.32379395 16.06526733 42.04456055 16.05717041 40.7265625 16.04882812 C39.40994629 16.05265503 38.09333008 16.05648193 36.73681641 16.0604248 C33.95260816 16.06631536 31.16891401 16.05777226 28.38476562 16.0390625 C24.82006917 16.01627188 21.25657732 16.02939753 17.69192505 16.05335236 C14.2867082 16.07130143 10.88181356 16.0587259 7.4765625 16.04882812 C6.1973291 16.05692505 4.9180957 16.06502197 3.60009766 16.07336426 C2.41206543 16.06075562 1.2240332 16.04814697 0 16.03515625 C-1.04494629 16.03197388 -2.08989258 16.0287915 -3.16650391 16.0255127 C-6.61220724 15.38487053 -7.79758332 14.28030935 -9.8984375 11.51757812 C-10.3984375 8.01757812 -10.3984375 8.01757812 -9.8984375 4.51757812 C-6.92216686 0.60362927 -4.82893969 0.01470649 0 0 Z " fill="#685E68" transform="translate(153.8984375,383.482421875)"/>
</svg>
